<?xml version="1.0" encoding="UTF-8" standalone="no"?>
<!-- Created with Inkscape (http://www.inkscape.org/) -->

<svg
   xmlns:dc="http://purl.org/dc/elements/1.1/"
   xmlns:cc="http://creativecommons.org/ns#"
   xmlns:rdf="http://www.w3.org/1999/02/22-rdf-syntax-ns#"
   xmlns:svg="http://www.w3.org/2000/svg"
   xmlns="http://www.w3.org/2000/svg"
   xmlns:sodipodi="http://sodipodi.sourceforge.net/DTD/sodipodi-0.dtd"
   xmlns:inkscape="http://www.inkscape.org/namespaces/inkscape"
   width="23"
   height="50"
   id="svg2"
   version="1.1"
   inkscape:version="0.92.1 r15371"
   sodipodi:docname="UEFA_Super_Cup.svg">
  <defs
     id="defs4" />
  <sodipodi:namedview
     id="base"
     pagecolor="#ffffff"
     bordercolor="#666666"
     borderopacity="1.0"
     inkscape:pageopacity="0.0"
     inkscape:pageshadow="2"
     inkscape:zoom="17.3"
     inkscape:cx="11.5"
     inkscape:cy="25"
     inkscape:document-units="px"
     inkscape:current-layer="layer1"
     showgrid="false"
     inkscape:window-width="1920"
     inkscape:window-height="1017"
     inkscape:window-x="-8"
     inkscape:window-y="-8"
     inkscape:window-maximized="1" />
  <metadata
     id="metadata7">
    <rdf:RDF>
      <cc:Work
         rdf:about="">
        <dc:format>image/svg+xml</dc:format>
        <dc:type
           rdf:resource="http://purl.org/dc/dcmitype/StillImage" />
        <dc:title></dc:title>
      </cc:Work>
    </rdf:RDF>
  </metadata>
  <g
     inkscape:label="Livello 1"
     inkscape:groupmode="layer"
     id="layer1"
     transform="translate(0,-1002.3622)">
    <path
       style="fill:#357050;fill-opacity:1;stroke:#2b6646;stroke-width:0.07351758px;stroke-linecap:butt;stroke-linejoin:miter;stroke-opacity:1"
       d="m 3.9278359,1047.7282 c 0.073566,0.9084 0.180127,1.7985 0.3928592,2.6374 0.062708,0.1967 0.150576,0.3893 0.4204284,0.5515 1.9338593,1.0273 4.3472259,1.1776 6.3156195,1.2452 0.282885,0 0.593098,0 0.905184,0 1.968394,-0.068 4.381763,-0.2179 6.31562,-1.2452 0.269854,-0.1622 0.357729,-0.3548 0.420433,-0.5515 0.21273,-0.8389 0.319294,-1.729 0.392856,-2.6374 -0.53412,1.6119 -4.465782,2.0023 -7.450548,2.0447 -0.08749,-7e-4 -0.1726,0 -0.261906,0 -2.9847636,-0.043 -6.9164256,-0.4328 -7.4505461,-2.0447 z"
       id="path3777"
       inkscape:connector-curvature="0"
       sodipodi:nodetypes="ccccccccccc" />
    <ellipse
       style="fill:#357050;fill-opacity:1;stroke:#2b6646;stroke-width:0.08085041;stroke-linecap:round;stroke-linejoin:round;stroke-miterlimit:4;stroke-dasharray:none;stroke-opacity:1"
       id="path3775"
       cx="11.506802"
       cy="1047.7018"
       rx="7.582768"
       ry="2.1111429" />
    <path
       style="fill:#dd974d;fill-opacity:1;stroke:#c98339;stroke-width:0.07351758px;stroke-linecap:butt;stroke-linejoin:miter;stroke-opacity:1"
       d="m 4.1824267,1045.3211 0.105682,2.2308 c 0.3687577,1.4692 5.7468353,1.7398 7.1013373,1.769 0.07729,0 0.151378,0 0.225148,0 1.354502,-0.029 6.732582,-0.2998 7.101339,-1.769 l 0.105681,-2.2308 c -1.486848,1.1692 -5.967286,1.3931 -7.20702,1.4037 -0.0793,6e-4 -0.144163,9e-4 -0.195281,0 -0.0085,0 -0.02107,10e-5 -0.02986,0 -1.239734,-0.01 -5.7201676,-0.2345 -7.2070196,-1.4037 z"
       id="path3773"
       inkscape:connector-curvature="0"
       sodipodi:nodetypes="cccccccccc" />
    <path
       style="fill:#357050;fill-opacity:1;stroke:#2b6646;stroke-width:0.07351758px;stroke-linecap:butt;stroke-linejoin:miter;stroke-opacity:1"
       d="m 4.4509328,1042.0611 -0.6157095,2.3227 c -0.00821,0.1879 -0.00802,0.3728 0.052843,0.5261 0.735594,1.446 5.0485789,1.7516 7.5056857,1.8311 0.07207,0 0.142579,0 0.21366,0 2.457282,-0.079 6.770196,-0.3853 7.505688,-1.8311 0.06085,-0.1533 0.05871,-0.3382 0.05055,-0.5261 l -0.61571,-2.3227 c -2.346865,2.8321 -13.246952,2.1638 -14.0969981,0 z"
       id="path3779"
       inkscape:connector-curvature="0"
       sodipodi:nodetypes="ccccccccc" />
    <ellipse
       id="path3781"
       style="fill:#357050;fill-opacity:1;stroke:#2b6646;stroke-width:0.07547519;stroke-linecap:round;stroke-linejoin:round;stroke-miterlimit:4;stroke-dasharray:none;stroke-opacity:1"
       cx="11.496243"
       cy="1042.0222"
       rx="7.0115142"
       ry="1.9896538" />
    <path
       style="fill:#e6e6e6;stroke:#cccccc;stroke-width:0.07351758px;stroke-linecap:butt;stroke-linejoin:miter;stroke-opacity:1"
       d="m 3.0777503,1004.7894 c -0.064274,0 -0.1287102,0.047 -0.1929836,0.1056 -0.4183276,0.5019 -0.8446332,0.9783 -1.1188457,1.8885 -0.1051022,0.075 -0.1939555,0.1581 -0.1769017,0.3056 -0.3080563,0.2563 -0.61604492,0.514 -0.63408906,0.9396 -1.85603576,8.7803 1.89890456,17.2242 4.47997786,21.2925 3.1774782,5.805 1.3116315,8.4061 0.025274,12.135 l -0.082705,0.1678 0.2136603,0.6869 0.2779879,0.03 0.4457007,0.3515 1.040733,0.2597 0.6317917,-0.037 1.1142503,0.2321 0.6111143,-0.055 0.7420687,0.2504 2.322696,-0.1309 0.67774,-0.1562 0.705309,0.027 1.493328,-0.3354 0.4457,0.019 0.90059,-0.3239 0.14014,-0.3539 0.342319,-0.055 0.085,-0.5009 c -0.0084,-0.031 -0.02291,-0.06 -0.02757,-0.078 -1.28633,-3.7275 -3.149163,-6.3291 0.02757,-12.1327 2.581077,-4.0684 6.336017,-12.5123 4.479977,-21.2925 -0.01804,-0.4256 -0.326029,-0.6834 -0.634089,-0.9397 0.01706,-0.1475 -0.0718,-0.2314 -0.176898,-0.3055 -0.274213,-0.9102 -0.70052,-1.3867 -1.118849,-1.8885 -0.102837,-0.094 -0.205019,-0.1551 -0.307856,-0.053 -0.08554,-0.072 -0.116966,-0.052 -0.128655,0 l 0.220552,8.4982 c 0.587223,2.7266 -0.884423,16.1125 -7.923813,17.164 -0.346751,0.06 -0.617712,0.058 -0.953432,0 -7.0393905,-1.0515 -8.511033,-14.4374 -7.9238157,-17.164 l 0.2205527,-8.4982 c -0.011687,-0.052 -0.043115,-0.072 -0.1286557,0 -0.038564,-0.039 -0.076308,-0.054 -0.1148712,-0.053 z"
       id="path3794"
       inkscape:connector-curvature="0"
       sodipodi:nodetypes="sccccccccccccccccccccccccccccccccccccccs" />
    <path
       style="fill:#f2f2f2;stroke:#ececec;stroke-width:0.07351758;stroke-linecap:butt;stroke-linejoin:miter;stroke-miterlimit:4;stroke-dasharray:none;stroke-opacity:1"
       d="m 3.2690761,1003.5392 c -1.9350856,10.0122 2.3292726,25.6192 7.7003569,26.8759 0.302626,0.081 0.773707,0.081 1.076447,0 5.371085,-1.2567 9.635443,-16.8637 7.700364,-26.8759 -4.478822,0 -12.5349494,0 -16.4771679,0 z"
       id="path3000"
       inkscape:connector-curvature="0"
       sodipodi:nodetypes="ccccc" />
    <path
       style="fill:#f2f2f2;stroke:#ececec;stroke-width:0.07351758px;stroke-linecap:butt;stroke-linejoin:miter;stroke-opacity:1"
       d="m 9.0564947,1033.9565 1.3915823,-1.9298 c -3.426225,-1.7703 -5.2572148,-4.8204 -6.3802751,-6.8398 0.8524932,2.9833 4.1338917,6.0719 4.9886928,8.7696 z"
       id="path3807"
       inkscape:connector-curvature="0"
       sodipodi:nodetypes="cccc" />
    <ellipse
       style="fill:#dd974d;fill-opacity:1;stroke:#c98339;stroke-width:0.07375101;stroke-linecap:round;stroke-linejoin:round;stroke-miterlimit:4;stroke-dasharray:none;stroke-opacity:1"
       id="path2998"
       cx="11.504676"
       cy="1003.5432"
       rx="8.2377605"
       ry="0.97800893" />
    <path
       style="fill:#f2f2f2;stroke:#ececec;stroke-width:0.07351758px;stroke-linecap:butt;stroke-linejoin:miter;stroke-opacity:1"
       d="m 6.3290266,1042.6288 0.9977387,0.2493 c -0.1048966,-2.2743 1.8940244,-3.6089 3.3214187,-5.1987 l -0.131281,-0.4595 c -3.5600245,3.3827 -4.0801918,4.5464 -4.1878764,5.4089 z"
       id="path3809"
       inkscape:connector-curvature="0"
       sodipodi:nodetypes="ccccc" />
    <path
       style="fill:#f2f2f2;stroke:#ececec;stroke-width:0.07351758px;stroke-linecap:butt;stroke-linejoin:miter;stroke-opacity:1"
       d="m 7.9931156,1042.8519 1.0502516,0.2232 c 0.3592083,-1.6259 0.5148901,-3.2834 2.3893208,-4.6736 l 0.643279,-0.7221 c -1.462338,0.7752 -3.9760458,2.2041 -4.0828514,5.1725 z"
       id="path3811"
       inkscape:connector-curvature="0"
       sodipodi:nodetypes="ccccc" />
    <path
       style="fill:#f2f2f2;stroke:#ececec;stroke-width:0.07351758px;stroke-linecap:butt;stroke-linejoin:miter;stroke-opacity:1"
       d="m 10.44967,1043.2775 2.310553,-0.1313 c -0.438109,-6.413 0.934112,-4.2442 1.299686,-7.9425 -0.401427,2.4813 -2.771699,2.0983 -3.610239,8.0738 z"
       id="path3813"
       inkscape:connector-curvature="0"
       sodipodi:nodetypes="cccc" />
    <path
       style="fill:#f2f2f2;stroke:#ececec;stroke-width:0.07351758px;stroke-linecap:butt;stroke-linejoin:miter;stroke-opacity:1"
       d="m 9.6078766,1036.7265 -0.5776383,-0.8533 -1.3915826,3.072 z"
       id="path3815"
       inkscape:connector-curvature="0" />
    <path
       style="fill:#f2f2f2;stroke:#ececec;stroke-width:0.07351758px;stroke-linecap:butt;stroke-linejoin:miter;stroke-opacity:1"
       d="m 12.981808,1032.3418 0.722047,0.8008 c 0.920554,-1.0968 1.711153,-2.3236 2.49435,-3.5578 -1.059065,1.0235 -2.122772,2.0099 -3.216397,2.757 z"
       id="path3817"
       inkscape:connector-curvature="0"
       sodipodi:nodetypes="cccc" />
    <path
       style="fill:#f2f2f2;stroke:#ececec;stroke-width:0.07351758px;stroke-linecap:butt;stroke-linejoin:miter;stroke-opacity:1"
       d="m 16.080048,1042.6813 0.853333,-0.3152 c -1.01849,-2.2817 -2.36045,-5.3056 -1.522864,-8.7433 -1.391998,4.1122 -0.234699,6.4997 0.669531,9.0585 z"
       id="path3819"
       inkscape:connector-curvature="0"
       sodipodi:nodetypes="cccc" />
    <path
       style="fill:#f2f2f2;stroke:#ececec;stroke-width:0.07351758px;stroke-linecap:butt;stroke-linejoin:miter;stroke-opacity:1"
       d="m 14.150212,1042.9986 1.352201,-0.315 c -0.511256,-1.4191 -0.960188,-2.8826 -1.942967,-3.9648 l -0.07877,0.6696 1.247174,3.1113 c -0.485649,-0.2984 -1.243388,-1.6905 -1.430968,-3.1507 l -0.236307,-0.2889 c -0.282313,1.5194 0.741245,3.4543 1.089635,3.9385 z"
       id="path3821"
       inkscape:connector-curvature="0"
       sodipodi:nodetypes="cccccccc" />
    <path
       style="fill:#f2f2f2;stroke:#ececec;stroke-width:0.07351758px;stroke-linecap:butt;stroke-linejoin:miter;stroke-opacity:1"
       d="m 5.6479575,1042.2666 0.3282029,0.027 c 1.2003886,-1.8687 1.4175091,-4.3273 1.5885045,-6.8136 -0.6566437,4.108 -1.4681828,5.9261 -1.9167074,6.7873 z"
       id="path3823"
       inkscape:connector-curvature="0"
       sodipodi:nodetypes="cccc" />
    <path
       style="fill:#f2f2f2;stroke:#ececec;stroke-width:0.07351758px;stroke-linecap:butt;stroke-linejoin:miter;stroke-opacity:1"
       d="m 17.379736,1041.991 -0.301952,0.053 c -1.518204,-3.3714 -1.999722,-5.7829 -1.627884,-7.4042 -0.04512,3.1881 1.041346,5.1638 1.929836,7.3517 z"
       id="path3825"
       inkscape:connector-curvature="0"
       sodipodi:nodetypes="cccc" />
    <circle
       style="fill:#cccccc;fill-opacity:1;stroke:#b3b3b3;stroke-width:0.08270916;stroke-linecap:round;stroke-linejoin:round;stroke-miterlimit:4;stroke-dasharray:none;stroke-opacity:1"
       id="path3792"
       cx="11.507222"
       cy="1034.8684"
       r="2.0051727" />
  </g>
</svg>
