<svg xmlns="http://www.w3.org/2000/svg" viewBox="0 0 128 128" role="img" aria-label="Soccer ball">
  <defs>
    <radialGradient id="ballBase" cx="36%" cy="28%" r="70%">
      <stop offset="0" stop-color="#ffffff"/>
      <stop offset="0.48" stop-color="#f4f7fb"/>
      <stop offset="0.78" stop-color="#d8e0ea"/>
      <stop offset="1" stop-color="#9aa8b8"/>
    </radialGradient>
    <radialGradient id="shine" cx="30%" cy="23%" r="38%">
      <stop offset="0" stop-color="#ffffff" stop-opacity="0.82"/>
      <stop offset="0.72" stop-color="#ffffff" stop-opacity="0.18"/>
      <stop offset="1" stop-color="#ffffff" stop-opacity="0"/>
    </radialGradient>
    <linearGradient id="panelShade" x1="22" x2="108" y1="20" y2="112">
      <stop offset="0" stop-color="#263241"/>
      <stop offset="0.58" stop-color="#111827"/>
      <stop offset="1" stop-color="#030712"/>
    </linearGradient>
    <clipPath id="clipBall">
      <circle cx="64" cy="64" r="57"/>
    </clipPath>
    <filter id="drop" x="-20%" y="-20%" width="140%" height="150%">
      <feDropShadow dx="0" dy="8" stdDeviation="8" flood-color="#020617" flood-opacity="0.32"/>
    </filter>
  </defs>
  <g filter="url(#drop)">
    <circle cx="64" cy="64" r="57" fill="url(#ballBase)"/>
    <g clip-path="url(#clipBall)">
      <path d="M24 26 47 18 57 39 39 54 19 45Z" fill="#101827"/>
      <path d="M83 16 107 29 103 54 78 47 73 26Z" fill="#101827"/>
      <path d="M12 70 32 57 50 73 43 96 18 96Z" fill="#101827"/>
      <path d="M111 65 120 90 100 108 78 94 84 72Z" fill="#101827"/>
      <path d="M50 106 74 106 85 128 38 128Z" fill="#101827"/>
      <polygon points="64,35 84,50 76,74 52,74 44,50" fill="url(#panelShade)"/>
      <path d="M64 35 57 15M84 50 104 54M76 74 84 94M52 74 43 96M44 50 24 45" fill="none" stroke="#111827" stroke-width="4" stroke-linecap="round"/>
      <path d="M47 18 57 39 44 50M83 16 73 26 84 50M32 57 44 50 52 74M100 108 84 94 76 74M50 106 52 74 76 74 74 106" fill="none" stroke="#718096" stroke-width="2.5" stroke-linecap="round" stroke-opacity="0.8"/>
      <path d="M20 45C29 58 34 64 50 73M103 54C94 62 91 67 84 72M43 96C55 102 61 105 74 106" fill="none" stroke="#718096" stroke-width="2" stroke-linecap="round" stroke-opacity="0.58"/>
      <circle cx="48" cy="38" r="6" fill="#ffffff" opacity="0.18"/>
      <circle cx="40" cy="30" r="18" fill="url(#shine)"/>
    </g>
    <circle cx="64" cy="64" r="57" fill="none" stroke="#ffffff" stroke-width="5" stroke-opacity="0.9"/>
    <circle cx="64" cy="64" r="54" fill="none" stroke="#0f172a" stroke-width="1.5" stroke-opacity="0.18"/>
  </g>
</svg>
